<?xml version="1.0" encoding="UTF-8"?>
<!DOCTYPE svg PUBLIC "-//W3C//DTD SVG 1.1//EN" "http://www.w3.org/Graphics/SVG/1.1/DTD/svg11.dtd">
<!-- Creator: CorelDRAW 2021 (64-Bit Evaluation Version) -->
<svg xmlns="http://www.w3.org/2000/svg" xml:space="preserve" width="300mm" height="300mm" version="1.1" style="shape-rendering:geometricPrecision; text-rendering:geometricPrecision; image-rendering:optimizeQuality; fill-rule:evenodd; clip-rule:evenodd"
viewBox="0 0 30000 30000"
 xmlns:xlink="http://www.w3.org/1999/xlink"
 xmlns:xodm="http://www.corel.com/coreldraw/odm/2003">
 <defs>
  <style type="text/css">
   <![CDATA[
    .fil0 {fill:black}
   ]]>
  </style>
 </defs>
 <g id="Layer_x0020_1">
  <metadata id="CorelCorpID_0Corel-Layer"/>
  <g id="_2060241304512">
   <path class="fil0" d="M23026.3 11297.04l0 -1853.39 -2469.95 0c961.89,-4127.21 1881.57,-2619.14 4797.19,-5702.69 1654.1,-1748.14 -265.12,-889.74 1997.67,-1708.92 0,20064.85 -1853.21,8976.24 -1853.21,22236.76l-1235.06 0c0,-2871.84 351.45,-4775.3 -618.32,-6795.04 -2405.69,871 -1853.38,1486.17 -1853.38,6795.04 -3604.51,299.79 -5845.59,2601.81 -7411.61,4940.08 3559.14,1708.92 2617.57,-1286.72 6051.16,-2593.93 2044.78,-779.95 6324.17,-494.34 9390.55,-494.34l0 -1851.81 -1853.38 0c0,-13903.88 1853.38,-4095.87 1853.38,-20383.55 0,-3587.34 -1263.26,-3703.44 -4772.15,-3706.59l-169.51 0c-1186.38,4445.74 -3727.08,2531.24 -6008.79,6972.43 -3273.54,6369.69 -743.87,5286.8 4155.41,4145.95z"/>
   <path class="fil0" d="M2026.18 18708.82c888.17,594.68 4376.75,3552.85 4941.66,4323.34 -753.33,423.77 -660.7,618.32 -1853.38,618.32 -2451.22,0 -2801.09,-2705.48 -3088.28,-4941.66zm-1853.38 0c0,5621.09 3283,7990.71 6176.72,6795.04l0 4323.34 1853.38 0c1241.2,-5329.35 -630.92,-7469.75 4100.42,-10104.66 1687.03,-940 5503.59,-2499.89 7068.22,-4050.33 1580.21,-1564.63 942.98,387.7 1184.81,-2521.79 -2258.25,186.67 -2046.36,291.91 -3556,1385.66 -3590.67,2603.39 -3898.17,2054.24 -6311.73,3570.18 -1423.31,892.9 -1693.33,1511.22 -3104.04,2455.95l-2587.8 -2354.03c-823.9,-1490.73 -500.64,-2965.87 -500.64,-5057.76 -2918.77,241.66 -4323.34,2515.48 -4323.34,5558.4z"/>
   <path class="fil0" d="M10056.11 26120.61l0 3706.59 1851.81 0c1054.53,-4519.46 3088.45,-2242.48 3088.45,-6795.04 0,-2361.73 189.82,-224.32 -616.74,-1851.81 -4144.55,1500.36 1515.94,3579.64 -4323.52,4940.26z"/>
  </g>
 </g>
</svg>
